#N canvas 19 50 163 109 10;
#X floatatom 55 48 5 0 0 0 - - -;
#X obj -5 132 serial_print_extended any;
#X obj -2 147 list trim;
#X floatatom 4 255 5 0 0 0 - - -;
#X floatatom 31 243 5 0 0 0 - - -;
#X floatatom 73 244 5 0 0 0 - - -;
#X obj -5 110 comport 1 38400;
#X msg 55 67 open 1;
#X obj 142 213 print;
#X obj -9 251 + 32768;
#X floatatom -11 295 5 0 0 0 - - -;
#X obj -10 271 / 1600;
#X obj 82 249 + 32768;
#X obj 81 269 / 1600;
#X obj 33 250 + 32768;
#X obj 32 270 / 1600;
#X floatatom 115 243 5 0 0 0 - - -;
#X floatatom 152 242 5 0 0 0 - - -;
#X floatatom 194 243 5 0 0 0 - - -;
#X msg 146 299 0 19 19;
#X obj 471 79 tgl 15 0 empty empty empty 17 7 0 10 -4034 -1 -1 0 1
;
#X obj 98 318 - 12;
#X floatatom 99 345 5 0 0 0 - - -;
#X floatatom 29 343 5 0 0 0 - - -;
#X msg 1396 402 81;
#X msg 1430 399 84;
#X msg 1466 402 88;
#X obj 249 628 *~ 0.1;
#X obj 234 784 s~ l;
#X obj 282 789 s~ r;
#X obj 241 839 r~ l;
#X obj 289 844 r~ r;
#X obj 269 877 dac~;
#X obj 220 494 * 1000;
#X obj 218 461 + 0.1;
#N canvas 129 706 1700 1068 gem 0;
#X floatatom 469 46 0 0 0 0 - - -;
#X floatatom 339 197 0 0 0 0 - - -;
#X obj 402 492 gemhead 1;
#X obj 402 530 world_light;
#X text 195 31 load in a model file;
#X obj 43 95 cnv 15 220 70 empty empty empty 20 12 0 14 -195568 -66577
0;
#N canvas 0 22 454 304 gemwin 0;
#X obj 132 136 gemwin;
#X obj 67 89 outlet;
#X obj 67 10 inlet;
#X obj 67 41 route create;
#X msg 67 70 set destroy;
#X msg 182 68 set create;
#X msg 132 112 create \, 1;
#X msg 238 112 destroy;
#N canvas 87 154 247 179 Gem.init 0;
#X obj 59 26 loadbang;
#X msg 165 79 reset;
#X obj 118 113 outlet;
#X obj 59 45 t b b;
#X obj 167 38 tgl 15 0 empty empty empty 17 7 0 10 -262144 -1 -1 0
1;
#X msg 54 75 lighting 1;
#X connect 0 0 3 0;
#X connect 1 0 2 0;
#X connect 3 0 5 0;
#X connect 3 1 1 0;
#X connect 4 0 5 0;
#X connect 5 0 2 0;
#X restore 289 80 pd Gem.init;
#X msg 261 168 dimen 1000 1000;
#X obj 307 139 loadbang;
#X obj 342 224 del 100;
#X connect 2 0 3 0;
#X connect 3 0 4 0;
#X connect 3 0 6 0;
#X connect 3 1 5 0;
#X connect 3 1 7 0;
#X connect 4 0 1 0;
#X connect 5 0 1 0;
#X connect 6 0 0 0;
#X connect 7 0 0 0;
#X connect 8 0 0 0;
#X connect 9 0 0 0;
#X connect 10 0 9 0;
#X connect 10 0 11 0;
#X connect 11 0 6 0;
#X restore 48 139 pd gemwin;
#X text 44 95 Create window and render;
#X text 79 388 Gem can load 3d-models in the alias|wavefront .obj format
;
#X floatatom 510 232 5 0 0 0 - - -;
#X floatatom 545 187 5 0 0 0 - - -;
#X obj 566 156 r x;
#X obj 596 156 r y;
#X obj 630 154 r z;
#X obj 672 226 + 0;
#X floatatom 745 133 5 0 0 0 - - -;
#X floatatom 799 144 5 0 0 0 - - -;
#X floatatom 850 154 5 0 0 0 - - -;
#X obj 671 254 * 1;
#X obj 624 344 pack 0 0 0;
#X obj 594 256 * 1;
#X obj 632 255 * 1;
#X obj 633 227 + 0;
#X obj 395 178 translateXYZ 0 0 -2;
#X msg 790 237 0;
#X obj 597 290 * 1;
#X obj 674 288 * 1;
#X msg 735 290 45;
#X obj 846 274 loadbang;
#X obj 188 572 * -1;
#X obj 188 603 + 1;
#X obj 198 582 * -1;
#X obj 198 613 + 1;
#X obj 492 118 * -1;
#X obj 469 130 + 1;
#X obj 595 228 + 0;
#X obj 687 73 line;
#X obj 737 74 line;
#X obj 721 31 \$1 \$1;
#X obj 670 35 \$1 \$1;
#X msg 796 41 200;
#X obj 407 218 rotateXYZ 0 0 0;
#X obj 635 289 * 1;
#X obj 508 73 * 0.6;
#X obj 1012 75 vsl 15 128 -5 5 0 0 empty empty empty 0 -9 0 10 -262144
-1 -1 0 1;
#X obj 1046 81 vsl 15 128 -5 5 0 0 empty empty empty 0 -9 0 10 -262144
-1 -1 0 1;
#X obj 760 492 sphere 4;
#X obj 588 472 color 1 0.4 0.4;
#X obj 395 54 gemhead;
#X obj 455 95 - 2.7;
#X floatatom 526 495 5 0 0 0 - - -;
#X obj 570 555 sphere 0.2 80;
#X obj 509 412 gemhead;
#X obj 469 452 sphere 4;
#X msg 590 439 draw line;
#X obj 336 334 r size;
#X floatatom 332 354 5 0 0 0 - - -;
#X obj 383 357;
#X obj 494 98 + 1.2;
#X obj 469 70 * 4;
#X obj 22 188 r anote;
#X obj 28 211 / 127;
#X obj -51 285 translateXYZ -2 0 -2;
#X obj 25 258 - 8;
#X obj 145 205 / 127;
#X obj 72 233 gemhead;
#X obj 162 252 - 8;
#X obj 66 279 translateXYZ 0 0 -2;
#X obj 265 208 / 127;
#X obj 192 236 gemhead;
#X obj 262 250 - 8;
#X obj 139 182 r bnote;
#X obj 259 185 r cnote;
#X obj 186 282 translateXYZ 2 0 -2;
#X obj 55 419 r z;
#X obj 56 440 * 500;
#X obj 12 486 line;
#X obj 8 464 \$1 \$1;
#X msg 55 460 \$1;
#X obj 126 420 r z;
#X obj 127 441 * 500;
#X obj 78 495 line;
#X obj 79 465 \$1 \$1;
#X msg 126 461 \$1;
#X obj 199 416 r z;
#X obj 200 437 * 500;
#X obj 151 491 line;
#X obj 152 461 \$1 \$1;
#X msg 199 457 \$1;
#X floatatom 39 342 5 0 0 0 - - -;
#X obj 255 485 r vib;
#X floatatom 255 509 5 0 0 0 - - -;
#X obj 298 445 vsl 15 128 0 127 0 0 empty empty empty 0 -9 0 10 -262144
-1 -1 0 1;
#X obj 296 586 / 5;
#X obj 42 567 r voll;
#X floatatom 152 614 5 0 0 0 - - -;
#X obj 332 595 - 5;
#X obj -66 383 rectangle 18 0.01;
#X obj -65 413 rectangle 18 0.01;
#X obj -66 441 rectangle 18 0.01;
#X obj 291 606 * 5;
#X obj 29 233 * 16;
#X obj 146 227 * 16;
#X obj 266 230 * 16;
#X msg -5 596 \$1;
#X floatatom -14 553 5 0 0 0 - - -;
#X msg 48 115 destroy;
#X floatatom 981 515 5 0 0 0 - - -;
#X obj 887 556 color 1 1 1;
#X floatatom 1114 518 5 0 0 0 - - -;
#X msg 1126 497 2;
#X msg 1098 480 text \$1;
#X obj 1020 559 color 1 1 1;
#X floatatom 1265 513 5 0 0 0 - - -;
#X msg 1277 492 2;
#X msg 1249 475 text \$1;
#X obj 1171 554 color 1 1 1;
#X obj 61 605 / 5;
#X obj 1170 513 text3d 0;
#X obj 1019 518 text3d 0;
#X obj 886 515 text3d 0;
#X obj 149 653 / 1.5;
#X obj 1670 207 loadbang;
#X obj 1348 287 outlet;
#X obj 1348 49 inlet;
#X msg 1648 178 Bb;
#X msg 1618 178 A;
#X msg 1588 178 G#;
#X msg 1558 178 G;
#X msg 1528 178 F#;
#X msg 1498 178 F;
#X msg 1468 178 E;
#X msg 1438 178 D#;
#X msg 1408 178 D;
#X msg 1378 178 C#;
#X obj 1348 100 % 12;
#X msg 1348 178 C;
#X obj 1348 151 sel 0 1 2 3 4 5 6 7 8 9 10 11;
#X obj 1348 241 list prepend set;
#X obj 1348 265 list trim;
#X msg 1670 230 set;
#X obj 1349 221 t a;
#X msg 1347 367 E;
#X msg 923 464 text \$1;
#X msg 1351 339 text;
#X obj 1337 397 list prepend;
#X obj 1343 312 loadbang;
#X obj 1339 433 list trim;
#X obj 1660 648 loadbang;
#X obj 1338 728 outlet;
#X obj 1338 490 inlet;
#X msg 1638 619 Bb;
#X msg 1608 619 A;
#X msg 1578 619 G#;
#X msg 1548 619 G;
#X msg 1518 619 F#;
#X msg 1488 619 F;
#X msg 1458 619 E;
#X msg 1428 619 D#;
#X msg 1398 619 D;
#X msg 1368 619 C#;
#X obj 1338 541 % 12;
#X msg 1338 619 C;
#X obj 1338 592 sel 0 1 2 3 4 5 6 7 8 9 10 11;
#X obj 1338 682 list prepend set;
#X obj 1338 706 list trim;
#X msg 1660 671 set;
#X obj 1339 662 t a;
#X msg 1337 808 A;
#X msg 1341 780 text;
#X obj 1327 838 list prepend;
#X obj 1333 753 loadbang;
#X obj 1329 874 list trim;
#X obj 1655 1094 loadbang;
#X obj 1333 1174 outlet;
#X obj 1333 936 inlet;
#X msg 1633 1065 Bb;
#X msg 1603 1065 A;
#X msg 1573 1065 G#;
#X msg 1543 1065 G;
#X msg 1513 1065 F#;
#X msg 1483 1065 F;
#X msg 1453 1065 E;
#X msg 1423 1065 D#;
#X msg 1393 1065 D;
#X msg 1363 1065 C#;
#X obj 1333 987 % 12;
#X msg 1333 1065 C;
#X obj 1333 1038 sel 0 1 2 3 4 5 6 7 8 9 10 11;
#X obj 1333 1128 list prepend set;
#X obj 1333 1152 list trim;
#X msg 1655 1117 set;
#X obj 1334 1108 t a;
#X msg 1332 1254 G#;
#X msg 1336 1226 text;
#X obj 1322 1284 list prepend;
#X obj 1328 1199 loadbang;
#X obj 1324 1320 list trim;
#X obj 1286 1172 t b;
#X msg 1663 1065 B;
#X msg 1668 619 B;
#X msg 1678 178 B;
#X obj 1295 243 t b;
#X obj 1301 669 t b;
#X msg 1141 693 text \$1;
#X obj 1067 747 text3d 0;
#X obj 1159 740 loadbang;
#X obj 1025 714 translateXYZ -5.6 0 -2;
#X msg 1181 1188 text \$1;
#X obj 1107 1242 text3d 0;
#X obj 1199 1235 loadbang;
#X obj 1065 1209 translateXYZ -5.6 0 -2;
#X msg 1175 234 text \$1;
#X obj 1101 288 text3d 0;
#X obj 1193 281 loadbang;
#X obj 1059 255 translateXYZ -5.6 0 -2;
#X obj 1131 223 + 0;
#X obj 1080 659 + 0;
#X obj 1100 1129 + 0;
#X obj 1039 1159 gemhead -10;
#X obj 1033 696 gemhead -10;
#X obj 1067 237 gemhead -10;
#X msg 1203 252 4;
#X msg 1169 710 4;
#X msg 1209 1205 4;
#X msg -82 631 draw lines;
#X obj 22 888 rectangle 0.01 18;
#X obj 30 756 gemhead;
#X obj 25 786 translateXYZ -5 0 -2;
#X obj -51 505 color 0.6 0 0;
#X obj -45 239 gemhead;
#X obj -82 486 color 0.6 0 0;
#X obj -50 526 color 0.6 0 0;
#X obj 14 312 triangle 0.1;
#X obj 131 306 triangle 0.1;
#X obj 251 309 triangle 0.1;
#X msg 837 389 draw fill;
#X msg 993 494 2;
#N canvas 1333 711 450 300 title 0;
#X obj 187 108 loadbang;
#X obj 61 64 gemhead -10;
#X obj 53 82 translateXYZ 0 5 -2;
#X msg 169 61 text Copedent Polyphonic Country Theremin;
#X obj 95 115 text3d Copedent Polyphonic Country Theremin;
#X msg 213 161 font Lato-Lig.ttf;
#X msg 197 78 6;
#X obj 253 202 loadbang;
#X obj 358 297 loadbang;
#X obj 232 253 gemhead -10;
#X msg 384 350 font Lato-Lig.ttf;
#X obj 369 321 loadbang;
#X msg 340 250 text V0.1;
#X obj 266 304 text3d V0.1;
#X msg 368 267 3;
#X obj 224 271 translateXYZ 4.1 4.95 -2;
#X obj 97 306 loadbang;
#X obj -29 262 gemhead -10;
#X obj 108 330 loadbang;
#X msg 79 259 text Simon Kilshaw;
#X obj 5 313 text3d Simon Kilshaw;
#X obj -37 280 translateXYZ -4.26 4.95 -2;
#X obj -8 295 color 1 1 1;
#X msg 123 359 font vera.ttf;
#X msg 129 286 2;
#X obj 253 286 color 1 1 1;
#X obj 82 97 color 0.8 0.8 0.8;
#X connect 0 0 6 0;
#X connect 0 0 3 0;
#X connect 1 0 2 0;
#X connect 2 0 26 0;
#X connect 3 0 4 0;
#X connect 5 0 4 0;
#X connect 6 0 4 1;
#X connect 7 0 5 0;
#X connect 8 0 14 0;
#X connect 8 0 12 0;
#X connect 9 0 15 0;
#X connect 10 0 13 0;
#X connect 11 0 10 0;
#X connect 12 0 13 0;
#X connect 14 0 13 1;
#X connect 15 0 25 0;
#X connect 16 0 24 0;
#X connect 16 0 19 0;
#X connect 17 0 21 0;
#X connect 18 0 23 0;
#X connect 19 0 20 0;
#X connect 21 0 22 0;
#X connect 22 0 20 0;
#X connect 23 0 20 0;
#X connect 24 0 20 1;
#X connect 25 0 13 0;
#X connect 26 0 4 0;
#X restore 1099 20 pd title;
#X obj 1054 729 color 0.5 0.5 0.5;
#X obj 1088 270 color 0.5 0.5 0.5;
#X obj 1094 1224 color 0.5 0.5 0.5;
#X obj 31 829 color 0.5 0.5 0.5;
#X obj 163 895 rectangle 0.01 18;
#X obj 171 763 gemhead;
#X obj 166 793 translateXYZ -5.1 0 -2;
#X obj 172 836 color 0.3 0.3 0.3;
#X obj 320 773 gemhead;
#X obj 321 846 color 0.3 0.3 0.3;
#X obj 315 803 translateXYZ 0 4.95 -2;
#X obj 312 905 rectangle 3.6 0.2;
#X msg 454 867 draw line;
#X obj 531 781 gemhead;
#X obj 532 854 color 0.3 0.3 0.3;
#X obj 526 811 translateXYZ 0 4.95 -2;
#X obj 523 913 rectangle 4.9 0.2;
#X msg 1194 304 font Lato-Lig.ttf;
#X connect 0 0 59 0;
#X connect 1 0 41 1;
#X connect 2 0 3 0;
#X connect 6 0 106 0;
#X connect 11 0 15 0;
#X connect 11 0 0 0;
#X connect 11 0 35 0;
#X connect 12 0 16 0;
#X connect 12 0 22 0;
#X connect 12 0 43 0;
#X connect 13 0 14 0;
#X connect 13 0 17 0;
#X connect 14 0 18 0;
#X connect 18 0 26 0;
#X connect 20 0 25 0;
#X connect 21 0 42 0;
#X connect 22 0 21 0;
#X connect 23 0 41 0;
#X connect 24 0 14 1;
#X connect 24 0 22 1;
#X connect 24 0 35 1;
#X connect 25 0 19 0;
#X connect 25 0 41 1;
#X connect 26 0 19 2;
#X connect 27 0 26 1;
#X connect 28 0 24 0;
#X connect 28 0 27 0;
#X connect 28 0 54 0;
#X connect 28 0 40 0;
#X connect 28 0 237 0;
#X connect 28 0 110 0;
#X connect 28 0 114 0;
#X connect 29 0 30 0;
#X connect 31 0 32 0;
#X connect 33 0 34 0;
#X connect 34 0 38 0;
#X connect 35 0 20 0;
#X connect 36 0 44 0;
#X connect 37 0 45 0;
#X connect 38 0 37 0;
#X connect 39 0 36 0;
#X connect 40 0 38 1;
#X connect 40 0 39 1;
#X connect 41 0 47 0;
#X connect 42 0 19 1;
#X connect 42 0 41 2;
#X connect 43 0 58 0;
#X connect 44 0 23 1;
#X connect 45 0 23 2;
#X connect 48 0 23 0;
#X connect 49 0 39 0;
#X connect 50 0 53 2;
#X connect 54 0 53 0;
#X connect 55 0 56 0;
#X connect 55 0 51 1;
#X connect 57 0 51 1;
#X connect 58 0 33 0;
#X connect 59 0 49 0;
#X connect 60 0 61 0;
#X connect 60 0 135 0;
#X connect 60 0 143 0;
#X connect 61 0 101 0;
#X connect 61 0 104 0;
#X connect 62 0 108 0;
#X connect 62 0 232 0;
#X connect 62 0 233 0;
#X connect 63 0 77 0;
#X connect 64 0 102 0;
#X connect 65 0 67 0;
#X connect 66 0 82 0;
#X connect 67 0 112 0;
#X connect 67 0 229 0;
#X connect 67 0 234 0;
#X connect 68 0 103 0;
#X connect 69 0 73 0;
#X connect 70 0 87 0;
#X connect 71 0 64 0;
#X connect 71 0 111 0;
#X connect 71 0 161 0;
#X connect 72 0 68 0;
#X connect 72 0 115 0;
#X connect 72 0 186 0;
#X connect 73 0 116 0;
#X connect 73 0 231 0;
#X connect 73 0 235 0;
#X connect 74 0 75 0;
#X connect 75 0 78 0;
#X connect 76 0 62 2;
#X connect 76 0 216 0;
#X connect 77 0 76 0;
#X connect 78 0 77 1;
#X connect 79 0 80 0;
#X connect 80 0 83 0;
#X connect 81 0 67 2;
#X connect 81 0 217 0;
#X connect 82 0 81 0;
#X connect 83 0 82 1;
#X connect 84 0 85 0;
#X connect 85 0 88 0;
#X connect 86 0 73 2;
#X connect 86 0 218 0;
#X connect 87 0 86 0;
#X connect 88 0 87 1;
#X connect 89 0 67 3;
#X connect 90 0 91 0;
#X connect 91 0 92 0;
#X connect 92 0 93 0;
#X connect 93 0 100 0;
#X connect 94 0 95 0;
#X connect 95 0 117 0;
#X connect 95 0 121 0;
#X connect 96 0 73 1;
#X connect 96 0 67 1;
#X connect 96 0 62 1;
#X connect 100 0 96 0;
#X connect 101 0 63 0;
#X connect 102 0 66 0;
#X connect 103 0 70 0;
#X connect 106 0 6 0;
#X connect 107 0 120 1;
#X connect 108 0 120 0;
#X connect 109 0 119 1;
#X connect 110 0 119 1;
#X connect 111 0 119 0;
#X connect 112 0 119 0;
#X connect 113 0 118 1;
#X connect 114 0 118 1;
#X connect 115 0 118 0;
#X connect 116 0 118 0;
#X connect 117 0 99 2;
#X connect 117 0 98 2;
#X connect 117 0 97 2;
#X connect 121 0 233 1;
#X connect 121 0 234 1;
#X connect 121 0 235 1;
#X connect 122 0 140 0;
#X connect 124 0 135 0;
#X connect 125 0 141 0;
#X connect 126 0 141 0;
#X connect 127 0 141 0;
#X connect 128 0 141 0;
#X connect 129 0 141 0;
#X connect 130 0 141 0;
#X connect 131 0 141 0;
#X connect 132 0 141 0;
#X connect 133 0 141 0;
#X connect 134 0 141 0;
#X connect 135 0 137 0;
#X connect 135 0 202 0;
#X connect 136 0 141 0;
#X connect 137 0 136 0;
#X connect 137 1 134 0;
#X connect 137 2 133 0;
#X connect 137 3 132 0;
#X connect 137 4 131 0;
#X connect 137 5 130 0;
#X connect 137 6 129 0;
#X connect 137 7 128 0;
#X connect 137 8 127 0;
#X connect 137 9 126 0;
#X connect 137 10 125 0;
#X connect 137 11 201 0;
#X connect 138 0 139 0;
#X connect 139 0 123 0;
#X connect 139 0 142 0;
#X connect 140 0 123 0;
#X connect 141 0 138 0;
#X connect 142 0 145 0;
#X connect 143 0 120 0;
#X connect 144 0 145 1;
#X connect 145 0 147 0;
#X connect 146 0 144 0;
#X connect 147 0 213 0;
#X connect 148 0 166 0;
#X connect 150 0 161 0;
#X connect 151 0 167 0;
#X connect 152 0 167 0;
#X connect 153 0 167 0;
#X connect 154 0 167 0;
#X connect 155 0 167 0;
#X connect 156 0 167 0;
#X connect 157 0 167 0;
#X connect 158 0 167 0;
#X connect 159 0 167 0;
#X connect 160 0 167 0;
#X connect 161 0 163 0;
#X connect 161 0 203 0;
#X connect 162 0 167 0;
#X connect 163 0 162 0;
#X connect 163 1 160 0;
#X connect 163 2 159 0;
#X connect 163 3 158 0;
#X connect 163 4 157 0;
#X connect 163 5 156 0;
#X connect 163 6 155 0;
#X connect 163 7 154 0;
#X connect 163 8 153 0;
#X connect 163 9 152 0;
#X connect 163 10 151 0;
#X connect 163 11 200 0;
#X connect 164 0 165 0;
#X connect 165 0 149 0;
#X connect 165 0 168 0;
#X connect 166 0 149 0;
#X connect 167 0 164 0;
#X connect 168 0 170 0;
#X connect 169 0 170 1;
#X connect 170 0 172 0;
#X connect 171 0 169 0;
#X connect 172 0 205 0;
#X connect 173 0 191 0;
#X connect 175 0 186 0;
#X connect 176 0 192 0;
#X connect 177 0 192 0;
#X connect 178 0 192 0;
#X connect 179 0 192 0;
#X connect 180 0 192 0;
#X connect 181 0 192 0;
#X connect 182 0 192 0;
#X connect 183 0 192 0;
#X connect 184 0 192 0;
#X connect 185 0 192 0;
#X connect 186 0 188 0;
#X connect 186 0 198 0;
#X connect 187 0 192 0;
#X connect 188 0 187 0;
#X connect 188 1 185 0;
#X connect 188 2 184 0;
#X connect 188 3 183 0;
#X connect 188 4 182 0;
#X connect 188 5 181 0;
#X connect 188 6 180 0;
#X connect 188 7 179 0;
#X connect 188 8 178 0;
#X connect 188 9 177 0;
#X connect 188 10 176 0;
#X connect 188 11 199 0;
#X connect 189 0 190 0;
#X connect 190 0 174 0;
#X connect 190 0 193 0;
#X connect 191 0 174 0;
#X connect 192 0 189 0;
#X connect 193 0 195 0;
#X connect 194 0 195 1;
#X connect 195 0 197 0;
#X connect 196 0 194 0;
#X connect 197 0 209 0;
#X connect 198 0 193 0;
#X connect 199 0 192 0;
#X connect 200 0 167 0;
#X connect 201 0 141 0;
#X connect 202 0 142 0;
#X connect 203 0 168 0;
#X connect 204 0 205 0;
#X connect 206 0 223 0;
#X connect 207 0 239 0;
#X connect 208 0 209 0;
#X connect 210 0 224 0;
#X connect 211 0 241 0;
#X connect 212 0 213 0;
#X connect 214 0 222 0;
#X connect 214 0 256 0;
#X connect 215 0 240 0;
#X connect 216 0 215 2;
#X connect 217 0 207 2;
#X connect 218 0 211 2;
#X connect 219 0 211 0;
#X connect 220 0 207 0;
#X connect 221 0 215 0;
#X connect 222 0 213 1;
#X connect 223 0 205 1;
#X connect 224 0 209 1;
#X connect 225 0 97 0;
#X connect 227 0 228 0;
#X connect 228 0 242 0;
#X connect 229 0 98 0;
#X connect 230 0 62 0;
#X connect 231 0 99 0;
#X connect 232 0 97 0;
#X connect 236 0 233 0;
#X connect 236 0 234 0;
#X connect 236 0 235 0;
#X connect 237 0 120 1;
#X connect 239 0 205 0;
#X connect 240 0 213 0;
#X connect 241 0 209 0;
#X connect 242 0 226 0;
#X connect 244 0 245 0;
#X connect 245 0 246 0;
#X connect 246 0 243 0;
#X connect 247 0 249 0;
#X connect 248 0 250 0;
#X connect 249 0 248 0;
#X connect 251 0 250 0;
#X connect 251 0 255 0;
#X connect 252 0 254 0;
#X connect 253 0 255 0;
#X connect 254 0 253 0;
#X connect 256 0 213 0;
#X connect 256 0 205 0;
#X connect 256 0 209 0;
#X connect 256 0 118 0;
#X connect 256 0 119 0;
#X connect 256 0 120 0;
#X restore 16 416 pd gem;
#X obj 775 848 s x;
#X obj 197 630 s y;
#X obj -3 513 / 1000;
#X floatatom -3 548 5 0 0 0 - - -;
#X obj -2 598 + 32;
#X floatatom -3 638 5 0 0 0 - - -;
#X obj -19 722 / 26000;
#X obj 151 986 s z;
#X floatatom -4 760 5 0 0 0 - - -;
#X obj -4 797 vsl 15 128 0 1 0 0 empty empty empty 0 -9 0 10 -262144
-1 -1 0 1;
#X obj 96 828 vsl 15 128 0 1 0 0 empty empty empty 0 -9 0 10 -262144
-1 -1 0 1;
#X obj 29 829 vsl 15 128 0 1 0 0 empty empty empty 0 -9 0 10 -262144
-1 -1 0 1;
#X floatatom 619 391 0 0 0 0 - - -;
#X floatatom 529 426 0 0 0 0 - - -;
#X obj 529 496 +~;
#X floatatom 641 446 0 0 0 0 - - -;
#X obj 619 476 *~;
#X obj 752 362 * 16;
#X obj 527 578 *~;
#X obj 619 707 dac~;
#X obj 754 301 - 0.3;
#X obj 747 409 hsl 128 15 0 16 0 0 empty empty empty -2 -8 0 10 -262144
-1 -1 0 1;
#X obj 619 416 osc~ 5;
#X obj 536 771 * -1;
#X obj 544 851 vsl 15 128 0 1 0 0 empty empty empty 0 -9 0 10 -262144
-1 -1 0 1;
#X floatatom 594 849 5 0 0 0 - - -;
#X obj 974 528 vsl 15 128 0 26000 0 0 empty empty empty 0 -9 0 10 -262144
-1 -1 0 1;
#X obj 665 881 vsl 15 128 -26000 26000 0 0 empty empty empty 0 -9 0
10 -262144 -1 -1 0 1;
#X obj 744 764 * -1;
#X obj 756 814 + 1;
#X obj 711 882 vsl 15 128 0 1 0 0 empty empty empty 0 -9 0 10 -262144
-1 -1 0 1;
#X obj 127 737 / 12000;
#X obj 639 841 + 20000;
#X obj 789 900 + 26000;
#X floatatom 804 925 5 0 0 0 - - -;
#X obj 867 753 vsl 15 128 0 127 0 0 empty empty empty 0 -9 0 10 -262144
-1 -1 0 1;
#X obj 548 821 + 1.5;
#X obj 178 562 * -1;
#X obj 178 593 + 1;
#X obj 669 630 line~;
#X obj 673 610 \$1 \$1;
#X msg 719 606 100;
#X obj 528 540 phasor~;
#X obj 425 620 rev3~ 100 90 3000 20;
#X obj 366 696 + 200;
#X obj 479 561 lop~;
#X obj 372 667 * 400;
#X obj 751 597 loadbang;
#X obj 63 729 / 10;
#X obj 28 316 - 8;
#X obj 493 239 \$1 \$1;
#X obj 500 284 line;
#X floatatom 494 198 5 0 0 0 - - -;
#X msg 503 121 69;
#X msg 535 123 57;
#X obj 748 82 sel 0 1;
#X msg 554 233 \$1;
#X floatatom 1285 398 0 0 0 0 - - -;
#X floatatom 1195 433 0 0 0 0 - - -;
#X obj 1195 503 +~;
#X floatatom 1307 453 0 0 0 0 - - -;
#X obj 1285 483 *~;
#X obj 1418 369 * 16;
#X obj 1193 585 *~;
#X obj 1285 714 dac~;
#X obj 1420 308 - 0.3;
#X obj 1413 416 hsl 128 15 0 16 0 0 empty empty empty -2 -8 0 10 -262144
-1 -1 0 1;
#X obj 1285 423 osc~ 5;
#X obj 1335 637 line~;
#X obj 1337 613 \$1 \$1;
#X msg 1385 613 100;
#X obj 1194 547 phasor~;
#X obj 1091 627 rev3~ 100 90 3000 20;
#X obj 1032 703 + 200;
#X obj 1145 568 lop~;
#X obj 1038 674 * 400;
#X obj 1417 604 loadbang;
#X obj 1159 246 \$1 \$1;
#X obj 1166 291 line;
#X msg 1222 297 \$1;
#X obj 827 167 + 4;
#X floatatom 1142 212 5 0 0 0 - - -;
#X obj 545 257 * 500;
#X obj 1211 264 * 500;
#X msg 651 131 64;
#X msg 445 121 61;
#X msg 842 116 69;
#X msg 883 156 5;
#X msg 888 133 4;
#X obj 845 98 bng 15 250 50 0 empty empty empty 17 7 0 10 -262144 -1
-1;
#X obj 785 101 bng 15 250 50 0 empty empty empty 17 7 0 10 -262144
-1 -1;
#X msg 801 94 1;
#X msg 802 70 0;
#X obj 753 62 sel 1;
#X msg 782 119 59;
#X msg 1061 104 1;
#X msg 1090 103 1;
#X msg 1123 105 0;
#X floatatom 1072 12 5 0 0 0 - - -;
#X obj 1037 19 bng 15 250 50 0 empty empty empty 17 7 0 10 -262144
-1 -1;
#X obj 1127 18 bng 15 250 50 0 empty empty empty 17 7 0 10 -262144
-1 -1;
#X msg 1183 103 1;
#X msg 613 173 66;
#X msg 730 194 67;
#X floatatom 766 183 5 0 0 0 - - -;
#X msg 659 199 62;
#X obj 1153 131 del 50;
#X msg 1470 1020 81;
#X msg 1504 1017 84;
#X msg 1540 1020 88;
#X floatatom 1359 1016 0 0 0 0 - - -;
#X floatatom 1269 1051 0 0 0 0 - - -;
#X obj 1269 1121 +~;
#X floatatom 1381 1071 0 0 0 0 - - -;
#X obj 1359 1101 *~;
#X obj 1492 962 * 16;
#X obj 1267 1203 *~;
#X obj 1359 1332 dac~;
#X obj 1494 926 - 0.3;
#X obj 1487 1034 hsl 128 15 0 16 0 0 empty empty empty -2 -8 0 10 -262144
-1 -1 0 1;
#X obj 1359 1041 osc~ 5;
#X obj 1409 1255 line~;
#X obj 1411 1231 \$1 \$1;
#X msg 1459 1231 100;
#X obj 1268 1165 phasor~;
#X obj 1165 1245 rev3~ 100 90 3000 20;
#X obj 1106 1321 + 200;
#X obj 1219 1186 lop~;
#X obj 1112 1292 * 400;
#X obj 1491 1222 loadbang;
#X obj 1233 864 \$1 \$1;
#X obj 1240 909 line;
#X msg 1292 917 \$1;
#X floatatom 1232 839 5 0 0 0 - - -;
#X obj 1285 882 * 500;
#X msg 1230 760 52;
#X msg 1316 760 54;
#X msg 1383 759 57;
#X msg 1345 758 56;
#X obj 1188 17 key;
#X floatatom 1327 55 5 0 0 0 - - -;
#X obj 1249 34 sel 32;
#X obj 756 8 sel 0 1 2 3 4 5 6 7 8 9 10;
#X floatatom 1432 754 5 0 0 0 - - -;
#X msg 1183 754 61;
#X msg 1150 758 62;
#X obj 461 176 mtof;
#X obj 502 158 + 0;
#X obj 1076 213 mtof;
#X obj 1151 182 + 0;
#X obj 1224 807 + 0;
#X obj 1181 876 mtof;
#X obj 1167 810 r scale;
#X obj 405 159 r scale;
#X obj 1186 182 r scale;
#X obj 1529 -21 vradio 15 1 0 13 empty empty empty 0 -8 0 10 -262144
-1 -1 0;
#X floatatom 1527 228 5 0 0 0 - - -;
#X obj 1531 185 s scale;
#X obj 1577 225;
#X obj 599 948 tgl 15 0 empty empty empty 17 7 0 10 -262144 -1 -1 0
1;
#X obj 1522 789 pipe 0;
#X floatatom 755 985 5 0 0 0 - - -;
#X floatatom 797 986 5 0 0 0 - - -;
#X obj 593 909 < 0.5;
#X obj 1063 36 counter 8;
#X obj 1187 54 sel 10;
#X msg 702 120 57;
#X msg 741 243 69;
#X floatatom 1491 194 5 0 0 0 - - -;
#X msg 1499 89 0;
#X obj 1500 26 t b;
#X obj 1720 -14 vradio 15 1 0 13 empty empty empty 0 -8 0 10 -262144
-1 -1 0;
#X floatatom 1719 224 5 0 0 0 - - -;
#X obj 1722 192 s scale;
#X floatatom 1682 201 5 0 0 0 - - -;
#X msg 1690 96 0;
#X obj 1691 59 t b;
#X obj 1685 181 +;
#X obj 1795 -4 vradio 15 1 0 13 empty empty empty 0 -8 0 10 -262144
-1 -1 0;
#X floatatom 1799 217 5 0 0 0 - - -;
#X obj 1595 -431 s scale;
#X msg 1765 106 0;
#X obj 1766 69 t b;
#X obj 1760 191 +;
#X obj 1759 215 + 12;
#X obj 1293 164 t b;
#X text 1546 52 5;
#X text 1550 84 4;
#X text 1817 98 5;
#X text 1815 71 4;
#X text 1740 89 5;
#X text 1738 62 4;
#X obj 105 1003 s z;
#X msg 1050 -19 set \$1;
#X floatatom 1050 -38 5 0 0 0 - - -;
#X msg 1104 -18 jam \$1;
#X floatatom 1104 -37 5 0 0 0 - - -;
#X obj 1621 -12 vradio 15 1 0 13 empty empty empty 0 -8 0 10 -262144
-1 -1 0;
#X floatatom 1625 235 5 0 0 0 - - -;
#X obj 1623 194 s scale;
#X floatatom 1583 203 5 0 0 0 - - -;
#X msg 1591 98 0;
#X obj 1592 61 t b;
#X text 1638 61 5;
#X text 1642 93 4;
#X obj 1586 183 +;
#X msg 1234 -25 5;
#X obj 1494 174 +;
#X msg 1400 -27 2;
#X obj 1431 -24 vradio 15 1 0 13 empty empty empty 0 -8 0 10 -262144
-1 -1 0;
#X floatatom 1429 225 5 0 0 0 - - -;
#X obj 1433 182 s scale;
#X floatatom 1393 191 5 0 0 0 - - -;
#X msg 1401 86 0;
#X obj 1413 18 t b;
#X text 1448 49 5;
#X text 1452 81 4;
#X obj 763 725 s size;
#X obj 1396 171 +;
#X msg 1365 22 6;
#X floatatom 271 244 5 0 0 0 - - -;
#X floatatom 230 243 5 0 0 0 - - -;
#X obj -5 220 unpack 0 0 0 0 0 0 0 0 0 0;
#X floatatom 313 247 5 0 0 0 - - -;
#X floatatom 344 252 5 0 0 0 - - -;
#X msg 6 67 close;
#X obj 275 -24 list split 8;
#X obj 277 164 tgl 15 0 empty empty empty 17 7 0 10 -262144 -1 -1 0
1;
#X obj 319 118 < 490;
#X obj 608 -5 sel 1;
#X obj 655 28 onebang;
#X obj 690 4 bng 15 250 50 0 empty empty empty 17 7 0 10 -262144 -1
-1;
#X obj 702 -32 del 100;
#X obj 1219 -380 loadbang;
#X msg 1434 -321 12;
#X obj 1222 -354 del 100;
#X msg 1319 -358 \; pd dsp 1;
#X obj 1222 -403 bng 15 250 50 0 empty empty empty 17 7 0 10 -262144
-1 -1;
#X msg 1533 -323 7;
#X msg 1568 -318 bang;
#X msg 1395 -321 2;
#X msg 1436 -291 12;
#X msg 1468 -317 7;
#X msg 1501 -320 7;
#X msg 1470 -290 5;
#X msg 1511 -290 bang;
#X msg 1440 -258 12;
#X msg 1470 -259 2;
#X msg 1508 -256 0;
#X msg 1540 -256 0;
#X msg 1584 -255 5;
#X msg 1671 -251 5;
#X msg 1711 -251 7;
#X msg 1623 -250 5;
#X msg 1536 -222 12;
#X msg 1570 -222 10;
#X msg 1603 -223 5;
#X msg 1435 -221 12;
#X msg 1503 -221 12;
#X msg 1637 -223 bang;
#X msg 1673 -223 bang;
#X msg 1720 -218 7;
#X msg 1437 -183 7;
#X msg 1470 -185 bang;
#X msg 1512 -173 bang;
#X msg 1318 -282;
#X msg 1556 -170 5;
#X msg 1597 -177 7;
#X msg 1637 -176 bang;
#X obj 1529 -423 cup;
#X msg 1440 -426 setbang 0;
#X msg 1611 -319 7;
#X floatatom 1528 -391 5 0 0 0 - - -;
#X obj 1434 -380 sel 0 1 2 3 4 5 6 7 8 9 10 11 12 13 14 15 16 17 18
19 20 21 22 23 24 25 26 27 28 29 30 31 32 33 34 35 36;
#X obj 975 -362 clock;
#X obj 603 274 s anote;
#X obj 1181 920 s cnote;
#X obj 1091 252 s bnote;
#X obj 807 376 s vib;
#X obj 687 666 s voll;
#X msg 1748 -176 12;
#X msg 1692 -177 7;
#X msg 1735 -289 12;
#X msg 1769 -288 5;
#X msg 1810 -288 bang;
#X msg 1855 -288 bang;
#X msg 1889 -288 7;
#X msg 1932 -287 2;
#X msg 1556 -290 7;
#X msg 1624 -292 7;
#X msg 1582 -292 bang;
#X obj -17 28 bng 15 250 50 0 redo empty empty 17 7 0 10 -262144 -1
-1;
#X obj 1389 -411 r redo;
#X text 1 27 reset;
#X connect 0 0 7 0;
#X connect 1 0 2 0;
#X connect 2 0 262 0;
#X connect 3 0 38 0;
#X connect 3 0 42 0;
#X connect 3 0 62 0;
#X connect 4 0 14 0;
#X connect 4 0 68 0;
#X connect 5 0 12 0;
#X connect 5 0 67 0;
#X connect 6 0 1 0;
#X connect 7 0 6 0;
#X connect 9 0 11 0;
#X connect 10 0 34 0;
#X connect 11 0 10 0;
#X connect 12 0 13 0;
#X connect 13 0 21 0;
#X connect 14 0 15 0;
#X connect 15 0 85 0;
#X connect 20 0 91 0;
#X connect 20 0 129 0;
#X connect 21 0 22 0;
#X connect 23 0 37 0;
#X connect 23 0 84 0;
#X connect 27 0 28 0;
#X connect 27 0 29 0;
#X connect 30 0 32 0;
#X connect 31 0 32 1;
#X connect 34 0 33 0;
#X connect 38 0 39 0;
#X connect 39 0 40 0;
#X connect 40 0 41 0;
#X connect 42 0 44 0;
#X connect 42 0 45 0;
#X connect 45 0 56 0;
#X connect 45 0 59 0;
#X connect 45 0 101 0;
#X connect 46 0 82 0;
#X connect 46 0 111 0;
#X connect 46 0 118 0;
#X connect 46 0 119 0;
#X connect 46 0 228 0;
#X connect 47 0 76 0;
#X connect 47 0 105 0;
#X connect 47 0 253 0;
#X connect 48 0 58 0;
#X connect 49 0 50 0;
#X connect 50 0 78 0;
#X connect 51 0 52 1;
#X connect 52 0 50 1;
#X connect 53 0 57 0;
#X connect 53 0 314 0;
#X connect 54 0 79 0;
#X connect 54 0 79 1;
#X connect 54 0 55 0;
#X connect 54 0 55 1;
#X connect 56 0 53 0;
#X connect 57 0 51 0;
#X connect 58 0 52 0;
#X connect 59 0 72 0;
#X connect 63 0 69 0;
#X connect 64 0 65 0;
#X connect 65 0 66 0;
#X connect 65 0 36 0;
#X connect 66 0 198 0;
#X connect 66 0 199 0;
#X connect 67 0 46 0;
#X connect 67 0 64 0;
#X connect 68 0 63 0;
#X connect 69 0 70 0;
#X connect 72 0 60 0;
#X connect 72 0 61 0;
#X connect 73 0 74 0;
#X connect 74 0 37 0;
#X connect 75 0 54 1;
#X connect 76 0 75 0;
#X connect 76 0 315 0;
#X connect 77 0 76 1;
#X connect 78 0 81 0;
#X connect 79 0 55 0;
#X connect 79 1 55 1;
#X connect 80 0 81 1;
#X connect 81 0 54 0;
#X connect 82 0 80 0;
#X connect 83 0 77 0;
#X connect 84 0 47 0;
#X connect 85 0 23 0;
#X connect 86 0 87 0;
#X connect 87 0 49 0;
#X connect 88 0 86 0;
#X connect 89 0 116 0;
#X connect 89 0 183 0;
#X connect 90 0 116 0;
#X connect 90 0 183 0;
#X connect 91 0 89 0;
#X connect 91 1 90 0;
#X connect 92 0 86 1;
#X connect 93 0 103 0;
#X connect 94 0 95 0;
#X connect 95 0 107 0;
#X connect 96 0 97 1;
#X connect 97 0 95 1;
#X connect 98 0 102 0;
#X connect 99 0 108 0;
#X connect 99 0 108 1;
#X connect 99 0 100 0;
#X connect 99 0 100 1;
#X connect 101 0 98 0;
#X connect 101 0 151 0;
#X connect 102 0 96 0;
#X connect 103 0 97 0;
#X connect 104 0 99 1;
#X connect 104 0 152 1;
#X connect 105 0 104 0;
#X connect 106 0 105 1;
#X connect 107 0 110 0;
#X connect 108 0 100 0;
#X connect 108 1 100 1;
#X connect 109 0 110 1;
#X connect 109 0 163 1;
#X connect 110 0 99 0;
#X connect 111 0 109 0;
#X connect 112 0 106 0;
#X connect 113 0 114 0;
#X connect 114 0 94 0;
#X connect 115 0 113 1;
#X connect 116 0 185 0;
#X connect 117 0 113 0;
#X connect 118 0 92 0;
#X connect 119 0 115 0;
#X connect 119 0 168 0;
#X connect 120 0 183 0;
#X connect 121 0 183 0;
#X connect 122 0 116 0;
#X connect 122 0 183 0;
#X connect 123 0 116 1;
#X connect 124 0 116 1;
#X connect 125 0 122 0;
#X connect 125 0 127 0;
#X connect 126 0 130 0;
#X connect 126 0 127 0;
#X connect 129 0 128 0;
#X connect 130 0 116 0;
#X connect 130 0 183 0;
#X connect 131 0 20 0;
#X connect 132 0 120 0;
#X connect 133 0 20 0;
#X connect 135 0 200 0;
#X connect 136 0 124 0;
#X connect 136 0 90 0;
#X connect 136 0 200 3;
#X connect 137 0 125 0;
#X connect 138 0 183 0;
#X connect 140 0 116 0;
#X connect 141 0 183 0;
#X connect 142 0 137 0;
#X connect 146 0 156 0;
#X connect 147 0 148 0;
#X connect 148 0 160 0;
#X connect 149 0 150 1;
#X connect 150 0 148 1;
#X connect 151 0 196 0;
#X connect 152 0 161 0;
#X connect 152 0 161 1;
#X connect 152 0 153 0;
#X connect 152 0 153 1;
#X connect 154 0 151 0;
#X connect 155 0 149 0;
#X connect 156 0 150 0;
#X connect 158 0 157 0;
#X connect 159 0 158 1;
#X connect 160 0 163 0;
#X connect 161 0 153 0;
#X connect 161 1 153 1;
#X connect 162 0 163 1;
#X connect 163 0 152 0;
#X connect 164 0 162 0;
#X connect 165 0 159 0;
#X connect 166 0 167 0;
#X connect 167 0 147 0;
#X connect 168 0 166 1;
#X connect 169 0 166 0;
#X connect 170 0 168 0;
#X connect 171 0 186 0;
#X connect 172 0 186 0;
#X connect 173 0 186 0;
#X connect 174 0 186 0;
#X connect 175 0 176 0;
#X connect 175 0 177 0;
#X connect 175 0 201 0;
#X connect 177 0 135 0;
#X connect 178 0 171 0;
#X connect 178 1 131 0;
#X connect 178 1 172 0;
#X connect 178 2 132 0;
#X connect 178 2 174 0;
#X connect 178 3 202 0;
#X connect 178 3 173 0;
#X connect 178 4 138 0;
#X connect 178 4 180 0;
#X connect 178 4 203 0;
#X connect 178 5 137 0;
#X connect 178 5 123 0;
#X connect 178 5 142 0;
#X connect 178 5 138 0;
#X connect 178 5 181 0;
#X connect 178 6 138 0;
#X connect 178 6 173 0;
#X connect 178 7 141 0;
#X connect 178 7 172 0;
#X connect 178 8 90 0;
#X connect 179 0 186 0;
#X connect 180 0 186 0;
#X connect 181 0 186 0;
#X connect 182 0 88 0;
#X connect 183 0 182 0;
#X connect 183 0 311 0;
#X connect 184 0 117 0;
#X connect 185 0 184 0;
#X connect 185 0 313 0;
#X connect 186 0 187 0;
#X connect 186 0 312 0;
#X connect 187 0 169 0;
#X connect 188 0 186 1;
#X connect 189 0 183 1;
#X connect 190 0 185 1;
#X connect 191 0 192 0;
#X connect 191 0 206 0;
#X connect 192 0 243 1;
#X connect 196 0 155 0;
#X connect 199 0 195 0;
#X connect 200 0 134 0;
#X connect 200 0 178 0;
#X connect 201 0 136 0;
#X connect 202 0 116 0;
#X connect 203 0 116 0;
#X connect 204 0 193 0;
#X connect 205 0 243 0;
#X connect 206 0 205 0;
#X connect 206 0 244 0;
#X connect 207 0 208 0;
#X connect 207 0 212 0;
#X connect 208 0 213 1;
#X connect 210 0 209 0;
#X connect 211 0 213 0;
#X connect 212 0 211 0;
#X connect 212 0 242 0;
#X connect 213 0 210 0;
#X connect 214 0 215 0;
#X connect 214 0 218 0;
#X connect 215 0 219 1;
#X connect 217 0 219 0;
#X connect 218 0 217 0;
#X connect 218 0 136 0;
#X connect 219 0 220 0;
#X connect 220 0 216 0;
#X connect 229 0 200 0;
#X connect 230 0 229 0;
#X connect 231 0 200 0;
#X connect 232 0 231 0;
#X connect 233 0 234 0;
#X connect 233 0 238 0;
#X connect 234 0 241 1;
#X connect 236 0 235 0;
#X connect 237 0 241 0;
#X connect 238 0 237 0;
#X connect 238 0 136 0;
#X connect 241 0 236 0;
#X connect 242 0 232 0;
#X connect 243 0 204 0;
#X connect 244 0 232 0;
#X connect 245 0 246 0;
#X connect 245 0 250 0;
#X connect 246 0 254 1;
#X connect 248 0 247 0;
#X connect 249 0 254 0;
#X connect 250 0 249 0;
#X connect 250 0 255 0;
#X connect 254 0 248 0;
#X connect 255 0 232 0;
#X connect 258 0 3 0;
#X connect 258 0 9 0;
#X connect 258 1 4 0;
#X connect 258 2 5 0;
#X connect 258 3 16 0;
#X connect 258 4 17 0;
#X connect 258 5 18 0;
#X connect 258 6 257 0;
#X connect 258 7 256 0;
#X connect 258 8 259 0;
#X connect 258 9 260 0;
#X connect 261 0 6 0;
#X connect 262 0 258 0;
#X connect 262 2 264 0;
#X connect 263 0 265 0;
#X connect 264 0 263 0;
#X connect 265 0 266 0;
#X connect 265 0 268 0;
#X connect 266 0 305 0;
#X connect 267 0 266 1;
#X connect 268 0 267 0;
#X connect 269 0 271 0;
#X connect 269 0 272 0;
#X connect 270 0 214 0;
#X connect 271 0 276 0;
#X connect 273 0 269 0;
#X connect 273 0 270 0;
#X connect 274 0 214 0;
#X connect 275 0 135 0;
#X connect 276 0 231 0;
#X connect 277 0 233 0;
#X connect 278 0 207 0;
#X connect 279 0 245 0;
#X connect 280 0 191 0;
#X connect 281 0 135 0;
#X connect 282 0 233 0;
#X connect 283 0 245 0;
#X connect 284 0 245 0;
#X connect 285 0 191 0;
#X connect 286 0 233 0;
#X connect 287 0 191 0;
#X connect 288 0 233 0;
#X connect 289 0 245 0;
#X connect 290 0 245 0;
#X connect 291 0 245 0;
#X connect 292 0 214 0;
#X connect 293 0 233 0;
#X connect 294 0 191 0;
#X connect 295 0 135 0;
#X connect 296 0 135 0;
#X connect 297 0 214 0;
#X connect 298 0 207 0;
#X connect 299 0 135 0;
#X connect 300 0 135 0;
#X connect 302 0 245 0;
#X connect 303 0 214 0;
#X connect 304 0 135 0;
#X connect 305 0 308 0;
#X connect 306 0 305 0;
#X connect 307 0 207 0;
#X connect 308 0 309 0;
#X connect 309 0 273 0;
#X connect 309 1 270 0;
#X connect 309 2 278 0;
#X connect 309 3 279 0;
#X connect 309 4 274 0;
#X connect 309 5 275 0;
#X connect 309 6 307 0;
#X connect 309 7 277 0;
#X connect 309 8 280 0;
#X connect 309 9 281 0;
#X connect 309 10 324 0;
#X connect 309 11 326 0;
#X connect 309 12 325 0;
#X connect 309 13 282 0;
#X connect 309 14 283 0;
#X connect 309 15 284 0;
#X connect 309 16 285 0;
#X connect 309 17 286 0;
#X connect 309 18 289 0;
#X connect 309 19 287 0;
#X connect 309 20 288 0;
#X connect 309 21 293 0;
#X connect 309 22 294 0;
#X connect 309 23 290 0;
#X connect 309 24 291 0;
#X connect 309 25 292 0;
#X connect 309 26 295 0;
#X connect 309 27 296 0;
#X connect 309 28 297 0;
#X connect 309 29 298 0;
#X connect 309 30 299 0;
#X connect 309 31 300 0;
#X connect 309 32 302 0;
#X connect 309 33 303 0;
#X connect 309 34 304 0;
#X connect 309 35 317 0;
#X connect 309 36 316 0;
#X connect 317 0 207 0;
#X connect 324 0 191 0;
#X connect 325 0 233 0;
#X connect 326 0 135 0;
#X connect 328 0 306 0;
